<svg width="46" height="46" viewBox="0 0 46 46" fill="none" xmlns="http://www.w3.org/2000/svg">
<rect x="0.605469" y="1" width="44" height="44" rx="22" fill="#5617D2"/>
<path d="M18.3895 30.441C18.5055 30.441 18.6311 30.412 18.7665 30.354C18.8825 30.2767 18.9888 30.209 19.0855 30.151L28.2205 23.858C28.5105 23.6647 28.7231 23.4713 28.8585 23.278C28.9938 23.0653 29.0615 22.8237 29.0615 22.553V22.06C29.0615 21.77 28.9938 21.5283 28.8585 21.335C28.7231 21.1417 28.5105 20.9387 28.2205 20.726L19.0855 14.462C18.9888 14.404 18.8825 14.346 18.7665 14.288C18.6311 14.2107 18.5055 14.172 18.3895 14.172C18.2348 14.172 18.0995 14.2203 17.9835 14.317C17.8675 14.4137 17.8095 14.5587 17.8095 14.752V16.028C17.8095 16.26 17.8675 16.4437 17.9835 16.579C18.0995 16.7143 18.2638 16.8497 18.4765 16.985L26.2485 22.292L18.4765 27.628C18.2638 27.7633 18.0995 27.8987 17.9835 28.034C17.8675 28.1693 17.8095 28.353 17.8095 28.585V29.861C17.8095 30.0543 17.8675 30.1993 17.9835 30.296C18.0995 30.3927 18.2348 30.441 18.3895 30.441Z" fill="white"/>
<rect x="0.605469" y="1" width="44" height="44" rx="22" stroke="#5617D2"/>
</svg>
