<svg width="22" height="14" viewBox="0 0 22 14" fill="none" xmlns="http://www.w3.org/2000/svg">
<path d="M1.37504 0.778076C2.09692 0.778076 3.19692 0.778076 3.81567 0.778076C4.12504 0.778076 4.36567 0.984326 4.46879 1.25933C4.77817 2.15308 5.46567 4.11245 6.25629 5.45308C7.32192 7.2062 8.00942 7.85933 8.45629 7.79058C8.90317 7.68745 8.76567 6.5187 8.76567 5.59058C8.76567 4.66245 8.86879 3.0812 8.42192 2.35933L7.73442 1.36245C7.56254 1.12183 7.73442 0.812451 8.00942 0.812451H11.9282C12.3063 0.812451 12.6157 1.12183 12.6157 1.49995V6.48433C12.6157 6.48433 12.7875 7.37808 13.75 6.44995C14.7125 5.52183 15.7438 3.80308 16.6032 2.04995L16.9469 1.22495C17.05 0.984326 17.2907 0.812451 17.5657 0.812451H20.1094C20.5907 0.812451 20.9344 1.2937 20.7625 1.74058L20.4875 2.46245C20.4875 2.46245 19.5594 4.3187 18.5969 5.62495C17.6344 6.96558 17.4282 7.27495 17.5657 7.6187C17.7032 7.96245 20.1782 10.2656 20.7969 11.3656C20.9688 11.675 21.1063 11.95 21.2438 12.1906C21.4844 12.6375 21.1407 13.2218 20.625 13.2218H17.7375C17.4969 13.2218 17.2563 13.0843 17.1532 12.8781L16.8782 12.4312C16.8782 12.4312 15.125 10.3687 14.0594 9.71558C12.9594 9.09683 12.9938 9.99058 12.9938 9.99058V11.8125C12.9938 12.5687 12.375 13.1875 11.6188 13.1875H10.9313C10.9313 13.1875 7.15004 13.1875 4.12504 8.68433C1.75317 5.17808 0.962543 2.90933 0.687543 1.60308C0.618793 1.19058 0.928168 0.778076 1.37504 0.778076Z" fill="white"/>
</svg>
