<svg width="40" height="53" viewBox="0 0 40 53" fill="none" xmlns="http://www.w3.org/2000/svg">
<g clip-path="url(#clip0_995_1003)">
<path d="M36.1365 -0.00219727H7.84285C6.81292 -0.00191665 5.79313 0.198889 4.8417 0.588754C3.89028 0.97862 3.02585 1.54991 2.29778 2.27001C1.5697 2.9901 0.992245 3.8449 0.598369 4.7856C0.204493 5.72631 0.0019136 6.73448 0.00219756 7.75257V39.0302C0.00224802 40.952 0.732881 42.8036 2.04922 44.2178C3.36555 45.632 5.17146 46.5056 7.10884 46.6653L7.84502 43.7246C6.48362 43.603 5.22184 42.968 4.32148 41.9513C3.42113 40.9346 2.95135 39.6143 3.00962 38.2643C3.06789 36.9143 3.64975 35.6383 4.63443 34.7011C5.61912 33.7639 6.93105 33.2375 8.29797 33.231H39.3622C39.5754 33.2308 39.7884 33.2437 40 33.2695V3.81909C40 2.80599 39.593 1.83435 38.8685 1.11779C38.1441 0.401218 37.1613 -0.00163066 36.1365 -0.00219727ZM11.0643 4.62694C10.6319 4.66541 8.06879 4.93363 6.38347 7.15095C5.56265 8.24726 5.11556 9.57309 5.10679 10.937V30.286C4.39655 30.7059 3.68957 31.1269 2.97933 31.548V7.57198C3.02376 6.66951 3.31805 5.79642 3.8301 5.04797C4.99652 3.35639 6.85696 3.00802 7.23424 2.94498L36.1408 2.54105C36.2245 2.53877 36.3079 2.55284 36.3862 2.58244C36.4645 2.61203 36.5361 2.65659 36.5969 2.71355C36.6577 2.77051 36.7066 2.83877 36.7408 2.91442C36.7749 2.99006 36.7936 3.07162 36.7959 3.15442L36.838 4.62694H11.0643Z" fill="#0072A3"/>
<path d="M37.6595 39.9631C38.0538 39.9612 38.4314 39.8055 38.7103 39.53C38.9892 39.2546 39.1469 38.8814 39.1492 38.4917C39.1489 38.1012 38.9918 37.7269 38.7125 37.4508C38.4332 37.1747 38.0545 37.0194 37.6595 37.0192H8.72378C8.32987 37.0211 7.95261 37.1765 7.67377 37.4515C7.39493 37.7265 7.23697 38.0991 7.23413 38.4885C7.23399 38.682 7.27241 38.8736 7.34719 39.0525C7.42198 39.2313 7.53167 39.3938 7.66999 39.5308C7.80832 39.6677 7.97257 39.7764 8.15338 39.8506C8.33419 39.9247 8.52801 39.963 8.72378 39.9631H14.2554C12.9063 40.1021 11.5589 40.2424 10.2134 40.3842C9.22105 43.8963 8.22795 47.4073 7.23413 50.9173L11.4901 49.635L14.0424 52.9999C15.4204 48.6543 16.794 44.3087 18.1633 39.9631H37.6595Z" fill="#0072A3"/>
<path d="M18.1255 43.746L17.1904 46.6953H38.4293C38.636 46.6956 38.8407 46.6555 39.0317 46.5773C39.2227 46.4991 39.3962 46.3844 39.5421 46.2397C39.6881 46.095 39.8037 45.9232 39.8823 45.7342C39.9608 45.5452 40.0009 45.3427 40 45.1384V43.7086C39.7883 43.7335 39.5754 43.746 39.3622 43.746H18.1255Z" fill="#0072A3"/>
</g>
<defs>
<clipPath id="clip0_995_1003">
<rect width="40" height="53" fill="white"/>
</clipPath>
</defs>
</svg>
